<svg height="1024" viewBox="0 0 1024 1024" width="1024" xmlns="http://www.w3.org/2000/svg"><path d="m512 12c122.953.103 243.694 46.018 334.772 128.796-5.392.462-10.398 2.666-15.06 5.282-105.862 62.775-230.715 144.906-450.785 358.927l-140.907-104.176c-16.288-12.058-38.954-11.055-54.081 2.393l-83.462 74.238c-8.566 7.615-13.632 18.33-14.042 29.694-.409 11.365 3.874 22.408 11.87 30.603l276.151 282.925c30.234 31.03 81.206 23.304 102.072-12.639 74.776-128.824 185.875-261.595 279.43-363.041 49.726-53.85 101.134-106.167 154.151-156.873l9.581-9.028 2.427-2.225.596-.546.128-.168c7.453-6.757 11.903-15.943 13.122-25.866 49.476 79.232 72.86 168.707 74.037 261.704 0 276.142-223.858 500-500 500s-500-223.858-500-500 223.858-500 500-500z" fill="#0063cc"/></svg>