<?xml version="1.0" encoding="UTF-8"?>
<!DOCTYPE svg PUBLIC "-//W3C//DTD SVG 1.1//EN" "http://www.w3.org/Graphics/SVG/1.1/DTD/svg11.dtd">
<svg version="1.1" xmlns="http://www.w3.org/2000/svg" xmlns:xlink="http://www.w3.org/1999/xlink" x="0" y="0" width="256" height="256" viewBox="0, 0, 1024, 1024">
  <g id="Layer_1">
    <path d="M512,1012 C235.858,1012 12,788.142 12,512 C12,235.858 235.858,12 512,12 C788.142,12 1012,235.858 1012,512 C1012,788.142 788.142,1012 512,1012 z" fill="#0063CC" display="none"/>
    <path d="M893.003,125.059 C915.474,111.526 944.622,118.166 959.014,140.097 L1007.35,213.822 C1020.387,233.717 1017.191,260.11 999.782,276.318 L999.636,276.513 L998.952,277.148 L996.169,279.736 L985.184,290.233 C924.396,349.193 865.453,410.025 808.439,472.642 C701.171,590.602 573.788,744.985 488.052,894.779 C464.128,936.573 405.685,945.556 371.019,909.475 L54.392,580.495 C45.224,570.966 40.313,558.126 40.783,544.911 C41.252,531.697 47.061,519.238 56.882,510.383 L152.578,424.061 C169.922,408.424 195.91,407.258 214.585,421.278 L376.146,542.412 C628.471,293.553 771.625,198.052 893.003,125.059 z" fill="#FFFFFF" display="none"/>
    <g>
      <path d="M512,12 C634.953,12.103 755.694,58.018 846.772,140.796 C841.38,141.258 836.374,143.462 831.712,146.078 C725.85,208.853 600.997,290.984 380.927,505.005 L240.02,400.829 C223.732,388.771 201.066,389.774 185.939,403.222 L102.477,477.46 C93.911,485.075 88.845,495.79 88.435,507.154 C88.026,518.519 92.309,529.562 100.305,537.757 L376.456,820.682 C406.69,851.712 457.662,843.986 478.528,808.043 C553.304,679.219 664.403,546.448 757.958,445.002 C807.684,391.152 859.092,338.835 912.109,288.129 L921.69,279.101 L924.117,276.876 L924.713,276.33 L924.841,276.162 C932.294,269.405 936.744,260.219 937.963,250.296 C987.439,329.528 1010.823,419.003 1012,512 C1012,788.142 788.142,1012 512,1012 C235.858,1012 12,788.142 12,512 C12,235.858 235.858,12 512,12 z" fill="#0063CC"/>
      <path d="M523.519,12.144 C644.152,15.645 756.611,60.801 846.771,140.796 C841.38,141.258 836.374,143.462 831.712,146.078 C725.85,208.853 600.997,290.984 380.927,505.005 L240.02,400.829 C223.732,388.771 201.066,389.774 185.939,403.222 L102.477,477.46 C93.911,485.075 88.845,495.79 88.435,507.154 C88.026,518.519 92.309,529.562 100.305,537.757 L376.456,820.682 C406.69,851.712 457.662,843.986 478.528,808.043 C553.304,679.219 664.403,546.448 757.958,445.002 C807.684,391.152 859.092,338.835 912.109,288.129 L921.69,279.101 L924.117,276.876 L924.713,276.33 L924.841,276.162 C932.294,269.405 936.744,260.219 937.963,250.296 C987.439,329.528 1010.823,419.003 1012,512 C1012,788.142 788.142,1012 512,1012 C235.858,1012 12,788.142 12,512 C12,235.858 235.858,12 512,12 L523.519,12.144 z M511.987,42 C249.673,44.081 45.311,250.509 42,512 C42,771.574 252.426,982 512,982 C774.175,979.936 978.689,773.569 981.998,512.161 C981.262,441.52 966.072,371.2 935.281,307.514 L932.794,309.857 C880.125,359.948 829.521,412.141 780.012,465.34 C665.465,589.548 568.818,712.251 504.473,823.105 C473.408,876.617 398.75,886.551 354.987,841.636 L78.832,558.707 C65.119,544.652 57.75,525.653 58.455,506.074 C59.16,486.505 67.869,468.086 82.538,455.044 L166.007,380.801 C191.747,357.919 230.179,356.218 257.855,376.706 L378.344,465.786 C458.879,388.16 542.234,313.283 630.901,245.011 C682.435,205.12 736.539,168.703 792.201,134.851 C711.863,73.978 612.222,43.254 511.987,42 z" fill="#FFFFFF"/>
    </g>
  </g>
</svg>
